<?xml version="1.0" standalone="no"?>
<!DOCTYPE svg PUBLIC "-//W3C//DTD SVG 20010904//EN"
 "http://www.w3.org/TR/2001/REC-SVG-20010904/DTD/svg10.dtd">
<svg version="1.0" xmlns="http://www.w3.org/2000/svg"
 width="700.000000pt" height="700.000000pt" viewBox="0 0 700.000000 700.000000"
 preserveAspectRatio="xMidYMid meet">
<metadata>
Created by potrace 1.14, written by Peter Selinger 2001-2017
</metadata>
<g transform="translate(0.000000,700.000000) scale(0.100000,-0.100000)"
fill="#000000" stroke="none">
<path d="M5340 6985 c-52 -7 -120 -16 -150 -20 -30 -3 -68 -8 -85 -10 -75 -10
-204 -27 -240 -31 -48 -6 -414 -52 -470 -59 -22 -3 -58 -8 -79 -10 -21 -3 -55
-7 -75 -10 -20 -3 -56 -7 -81 -10 -45 -5 -80 -10 -155 -19 -22 -3 -60 -8 -85
-12 -25 -3 -61 -7 -80 -9 -19 -2 -53 -6 -75 -9 -78 -10 -111 -15 -160 -21 -27
-3 -72 -8 -100 -12 -65 -8 -79 -10 -145 -18 -30 -3 -66 -8 -80 -10 -14 -2 -47
-7 -75 -10 -54 -6 -95 -11 -153 -19 -20 -3 -77 -10 -127 -16 -49 -6 -103 -13
-120 -15 -16 -3 -106 -14 -200 -25 -237 -29 -247 -30 -275 -35 -14 -2 -47 -7
-75 -10 -57 -6 -87 -10 -200 -25 -44 -5 -100 -12 -125 -15 -25 -3 -81 -10
-125 -16 -44 -5 -97 -12 -117 -14 -21 -3 -56 -7 -78 -10 -22 -3 -59 -7 -82
-10 -24 -3 -59 -7 -78 -10 -19 -3 -55 -7 -80 -10 -25 -3 -79 -10 -120 -16
-121 -16 -132 -17 -195 -24 -33 -4 -71 -8 -85 -10 -14 -3 -83 -11 -155 -20
-71 -9 -143 -18 -160 -20 -16 -2 -52 -7 -80 -10 -27 -4 -63 -8 -80 -10 -16 -3
-106 -14 -200 -25 -177 -23 -200 -29 -209 -57 -3 -10 -8 -187 -11 -393 -3
-206 -7 -512 -10 -680 -3 -168 -7 -469 -10 -670 -3 -201 -7 -511 -10 -690 -5
-306 -7 -470 -20 -1335 -3 -192 -7 -485 -10 -650 -3 -165 -7 -479 -10 -697
l-6 -397 23 -14 c13 -8 95 -24 183 -36 88 -11 169 -23 180 -25 11 -2 46 -7 79
-11 32 -3 68 -8 80 -10 20 -4 284 -41 351 -49 75 -10 343 -48 365 -51 14 -3
50 -7 80 -11 30 -3 64 -8 74 -10 11 -2 56 -8 100 -14 45 -6 92 -13 106 -15 38
-6 319 -45 365 -51 22 -2 87 -11 145 -20 58 -8 123 -17 145 -20 22 -3 51 -7
65 -9 46 -7 175 -24 220 -30 25 -3 56 -8 70 -10 14 -3 45 -7 70 -10 25 -3 74
-10 110 -15 36 -5 81 -11 100 -14 19 -3 71 -10 114 -17 44 -6 92 -13 108 -15
16 -2 45 -6 66 -8 20 -3 105 -15 187 -27 83 -11 159 -22 170 -24 11 -1 47 -6
80 -9 33 -4 67 -9 75 -11 8 -2 56 -9 105 -16 50 -6 99 -13 110 -14 18 -3 134
-19 225 -31 19 -3 46 -7 60 -9 14 -2 45 -7 70 -10 25 -4 56 -8 70 -10 36 -5
179 -25 215 -30 17 -2 66 -9 110 -15 44 -6 96 -13 115 -16 19 -2 62 -9 95 -14
33 -5 83 -12 110 -15 28 -4 145 -20 260 -36 116 -16 220 -27 232 -24 14 3 52
52 109 137 49 73 268 403 488 733 l399 600 1 2064 c1 1355 -2 2071 -9 2087 -9
20 -249 359 -816 1151 -178 250 -150 231 -319 208z m60 -120 c0 -3 -20 -40
-44 -83 -23 -42 -58 -104 -76 -137 -18 -33 -44 -80 -58 -105 -13 -25 -49 -90
-80 -145 -30 -55 -66 -120 -80 -145 -14 -25 -36 -65 -50 -90 -13 -25 -32 -58
-42 -75 -9 -16 -34 -61 -55 -100 -99 -185 -267 -485 -274 -489 -8 -5 -145 -17
-351 -31 -47 -3 -107 -8 -135 -10 -27 -3 -88 -7 -135 -10 -47 -3 -105 -8 -130
-10 -25 -2 -83 -6 -130 -10 -47 -3 -103 -7 -125 -9 -22 -2 -85 -7 -140 -11
-55 -3 -120 -8 -145 -10 -25 -2 -88 -7 -140 -10 -52 -4 -109 -8 -126 -10 -17
-2 -79 -7 -139 -10 -60 -4 -117 -8 -127 -10 -10 -2 -44 -5 -76 -6 -52 -1 -122
23 -812 281 -415 155 -829 309 -920 343 -733 271 -705 258 -600 271 190 23
387 47 414 51 17 2 54 7 81 10 65 9 99 13 160 20 78 9 207 26 237 31 15 2 49
6 75 9 27 3 64 7 83 10 33 4 157 20 243 30 20 3 54 7 75 10 56 7 202 25 242
30 43 6 127 16 160 20 53 6 128 16 201 25 41 6 95 13 119 15 24 2 78 9 119 15
100 13 154 20 284 35 32 3 66 8 75 10 17 3 81 11 152 19 19 3 109 14 200 25
91 12 185 24 210 27 25 2 56 7 70 9 14 2 70 9 125 15 55 6 114 13 130 15 73
10 424 55 465 59 25 3 81 10 125 16 89 12 85 11 315 40 226 28 225 28 311 39
42 6 101 13 130 16 30 4 79 10 109 14 75 11 80 12 80 6z m48 -665 c0 -352 -3
-642 -7 -644 -7 -5 -85 -12 -216 -21 -44 -3 -107 -8 -140 -11 -33 -3 -82 -7
-110 -9 -27 -1 -101 -6 -163 -10 l-114 -8 33 59 c17 33 51 93 74 134 46 82 42
74 210 380 65 118 131 236 146 263 16 26 29 50 29 53 0 3 25 48 55 100 30 53
55 97 55 99 0 2 25 47 55 100 30 54 55 99 55 102 0 5 31 53 35 53 1 0 3 -288
3 -640z m348 180 c158 -223 343 -483 411 -579 68 -95 122 -175 120 -177 -7 -8
-39 -12 -147 -18 -58 -4 -121 -9 -140 -11 -19 -2 -80 -7 -135 -10 -55 -4 -116
-9 -135 -10 -19 -1 -84 -6 -145 -10 -60 -4 -114 -8 -120 -8 -7 -1 -10 212 -11
621 -1 343 2 620 6 615 4 -4 137 -190 296 -413z m-4981 -384 c171 -63 551
-204 845 -314 294 -110 641 -239 770 -287 l236 -88 -1 -213 c0 -117 -3 -215
-6 -218 -6 -7 -49 -11 -194 -21 -49 -3 -108 -8 -130 -10 -22 -2 -80 -7 -130
-10 -49 -3 -116 -8 -148 -10 l-59 -5 -121 98 c-67 53 -129 102 -137 109 -29
23 -487 388 -525 418 -21 17 -61 48 -89 71 -38 31 -438 349 -586 467 -112 88
-260 209 -260 212 0 2 51 -17 113 -40 61 -24 251 -95 422 -159z m-581 174 c11
-11 93 -76 181 -146 88 -69 169 -134 180 -143 11 -9 54 -43 95 -76 41 -33 296
-235 565 -450 270 -215 541 -431 603 -480 61 -49 113 -96 113 -105 1 -8 2
-557 3 -1220 l1 -1205 -405 -318 c-223 -175 -412 -323 -420 -330 -8 -7 -141
-111 -295 -232 -258 -202 -518 -406 -673 -528 l-62 -49 5 304 c2 166 7 465 10
663 3 198 7 504 10 680 3 176 7 480 10 675 5 363 12 854 20 1335 2 149 7 473
10 720 4 248 8 533 10 635 2 102 4 209 4 238 1 28 4 52 7 52 3 0 16 -9 28 -20z
m5995 -697 c-68 -54 -133 -105 -144 -115 -11 -9 -94 -76 -185 -148 -91 -73
-184 -148 -207 -167 -23 -19 -70 -57 -105 -84 -35 -28 -71 -56 -80 -64 -16
-13 -17 6 -17 301 l-1 314 38 1 c20 0 45 2 54 4 9 2 63 6 120 10 57 3 126 8
153 10 53 5 124 10 265 21 47 3 86 7 87 7 1 1 34 3 74 5 l72 4 -124 -99z m136
-1942 l0 -1989 -35 27 c-19 15 -107 83 -195 152 -88 68 -165 128 -171 134 -7
5 -116 90 -243 189 l-230 178 2 1302 2 1301 137 110 c75 60 151 122 170 137
18 15 150 121 293 237 143 115 262 210 265 210 3 1 5 -894 5 -1988z m-919
1653 c0 -175 -1 -325 -4 -333 -3 -7 -62 -58 -131 -114 -69 -55 -127 -104 -129
-108 -8 -21 -20 -16 -564 249 l-206 101 128 231 c71 128 130 233 132 235 2 2
46 6 98 10 52 4 113 8 135 10 22 2 81 7 130 10 50 4 110 8 135 10 25 2 90 7
145 10 55 4 102 9 104 11 22 21 26 -25 27 -322z m-836 251 c0 -4 -48 -93 -107
-198 -109 -196 -127 -230 -129 -235 -2 -5 -46 -9 -159 -16 -55 -4 -116 -9
-135 -11 -19 -2 -78 -7 -130 -10 -52 -4 -113 -8 -135 -10 -157 -12 -235 -18
-265 -20 -101 -7 -240 -17 -280 -20 -25 -2 -88 -6 -140 -10 -52 -3 -113 -8
-135 -11 -39 -5 -41 -4 -63 38 -12 24 -32 61 -44 83 -59 103 -158 283 -158
286 0 3 8 5 18 5 36 2 238 15 272 19 19 1 78 6 130 9 52 4 113 9 135 11 22 2
85 7 140 10 55 4 118 8 140 10 22 2 81 6 130 10 50 3 108 8 130 10 22 2 81 7
130 10 90 6 175 12 270 20 28 2 97 7 155 11 58 3 106 7 108 9 6 5 122 5 122 0z
m-1801 -374 c51 -90 89 -166 86 -169 -3 -3 -25 -7 -48 -9 -23 -1 -63 -4 -89
-7 l-48 -4 0 180 c0 100 2 179 4 177 2 -2 45 -78 95 -168z m1537 -347 l5 -159
-43 -1 c-71 -1 -487 -15 -568 -19 -70 -3 -431 -16 -529 -19 -29 -1 -47 4 -53
14 -38 64 -137 244 -135 246 1 1 52 5 112 9 61 4 126 8 145 10 19 2 76 6 125
10 186 13 212 15 275 20 108 8 180 14 280 20 52 4 111 8 130 10 19 2 80 6 135
10 55 4 102 9 104 11 10 9 12 -10 17 -162z m524 -92 c63 -30 78 -42 60 -43
-86 -4 -167 -7 -341 -13 l-196 -7 -2 150 -2 149 198 -97 c109 -54 236 -116
283 -139z m576 -1097 c0 -690 -3 -1255 -7 -1255 -5 0 -62 42 -128 92 l-121 93
0 1063 0 1062 23 19 c56 49 223 180 228 181 3 0 5 -565 5 -1255z m-2409 1127
c36 -63 62 -116 60 -119 -3 -2 -91 17 -197 42 l-191 47 3 66 3 66 70 4 c39 2
71 5 72 6 1 1 28 2 59 2 l57 -1 64 -113z m-374 53 c-1 -22 -1 -47 -2 -56 -1
-13 -27 -9 -166 25 -91 22 -165 44 -165 48 0 4 8 6 18 6 19 -1 216 13 219 15
1 1 23 2 49 2 l48 0 -1 -40z m-439 -11 c33 -9 68 -17 76 -19 8 -2 93 -22 188
-45 136 -33 172 -45 173 -58 0 -18 -2 -884 -4 -1620 -2 -401 -4 -463 -17 -466
-8 -3 -40 -8 -70 -12 -30 -4 -57 -8 -60 -9 -9 -2 -93 -16 -125 -21 -16 -3 -57
-10 -90 -16 -56 -10 -179 -13 -194 -4 -5 4 -8 2274 -2 2284 4 7 71 0 125 -14z
m861 -209 c17 -4 33 -9 38 -14 4 -4 6 -434 5 -957 l-3 -949 -160 -27 c-88 -15
-184 -30 -213 -33 l-53 -7 5 934 c3 513 5 981 6 1039 l0 106 173 -44 c94 -23
186 -45 202 -48z m1973 46 c9 -1 12 -204 12 -981 l0 -980 -315 0 -315 0 -1 88
c0 48 -2 137 -4 197 -1 61 -6 245 -10 410 -4 165 -8 352 -10 415 -2 63 -6 259
-10 435 -4 176 -8 337 -9 358 -2 20 0 37 3 38 11 2 127 7 351 14 124 4 226 8
227 9 2 2 52 0 81 -3z m-707 -58 c0 -21 2 -96 4 -168 7 -320 17 -711 20 -835
2 -74 7 -272 10 -440 4 -168 8 -340 10 -382 l2 -78 -608 0 -609 0 0 950 0 950
58 1 c31 0 91 2 132 4 155 6 401 15 575 21 99 3 181 6 182 7 1 1 51 3 112 5
l111 3 1 -38z m48 -2056 l2 -109 -128 7 c-151 7 -297 14 -408 20 -44 2 -136 7
-205 10 -257 12 -308 15 -435 21 -71 3 -132 8 -134 10 -5 5 51 111 70 132 14
16 64 17 626 17 l611 0 1 -108z m655 102 c3 -3 -49 -23 -117 -44 -67 -21 -203
-65 -301 -97 -99 -32 -181 -56 -184 -53 -5 5 -11 186 -6 195 3 7 601 6 608 -1z
m-1988 -81 l-35 -62 -84 3 c-46 1 -93 4 -103 6 -10 2 -47 4 -81 4 -63 1 -63 1
-63 30 0 25 4 30 38 36 63 12 76 14 112 19 19 3 62 10 95 16 33 6 78 13 100
16 22 4 42 8 45 11 2 2 6 0 8 -6 2 -6 -12 -39 -32 -73z m-414 -4 c3 -3 4 -14
1 -24 -4 -14 -12 -18 -36 -15 -18 2 -63 4 -102 5 -82 2 -78 5 30 24 96 17 100
17 107 10z m2548 -43 c19 -15 82 -65 140 -110 l105 -82 1 -329 c0 -327 0 -329
-20 -325 -12 2 -70 6 -131 9 -168 8 -367 18 -400 21 -16 2 -52 4 -78 4 l-48 1
-48 103 c-27 56 -74 156 -106 222 -31 66 -75 158 -97 204 -22 45 -36 86 -31
90 4 4 96 36 203 70 374 121 465 150 470 151 3 0 21 -13 40 -29z m-3035 -96
c143 -6 384 -17 440 -19 22 0 42 -4 45 -8 3 -3 4 -100 3 -215 -1 -114 -2 -244
-2 -288 l-1 -80 -257 -85 c-267 -87 -673 -220 -1038 -340 -167 -55 -1093 -357
-1155 -376 -13 -5 -13 -3 0 9 8 8 109 87 223 176 114 89 337 264 495 388 356
279 282 221 717 562 266 209 376 289 390 286 11 -2 74 -7 140 -10z m748 -34
c26 -1 47 -4 47 -9 0 -4 -26 -55 -58 -112 -32 -58 -75 -136 -96 -175 -63 -115
-108 -195 -109 -195 -1 0 -1 53 0 117 1 65 2 178 2 251 l1 133 83 -5 c45 -2
103 -5 130 -5z m302 -16 c83 -3 179 -8 215 -10 36 -2 128 -7 205 -10 77 -3
174 -8 215 -10 41 -2 136 -7 210 -10 74 -4 136 -8 138 -9 2 -2 -48 -20 -110
-40 -62 -20 -311 -102 -553 -181 -769 -252 -808 -265 -813 -260 -3 2 0 10 5
17 10 13 31 50 101 178 109 201 186 336 196 342 6 4 18 6 26 3 8 -2 83 -7 165
-10z m1239 -107 c13 -29 56 -120 96 -203 108 -223 160 -336 160 -347 0 -5 -8
-7 -17 -4 -10 3 -70 8 -133 11 -205 11 -356 19 -540 30 -36 2 -117 7 -180 10
-63 4 -140 8 -170 10 -30 2 -109 6 -175 9 -66 4 -147 8 -180 11 -33 2 -118 7
-190 11 -71 4 -143 8 -160 10 -16 1 -55 3 -85 4 l-55 1 35 14 c19 7 265 88
545 180 281 92 602 197 715 235 144 48 221 69 258 69 l52 1 24 -52z m1307
-184 c145 -113 335 -260 421 -327 86 -67 157 -125 158 -129 0 -4 -17 -6 -37
-3 -21 2 -92 7 -158 10 -66 3 -147 8 -180 10 -33 2 -118 7 -190 11 -71 3 -146
8 -165 9 -19 2 -54 4 -77 4 l-42 1 0 310 c0 171 1 310 3 310 2 0 122 -93 267
-206z m-2721 -319 c30 -2 105 -6 165 -10 61 -3 144 -8 185 -10 186 -11 272
-16 365 -21 55 -2 123 -6 150 -9 28 -2 111 -7 185 -10 74 -4 160 -8 190 -10
30 -2 109 -7 175 -11 66 -4 136 -8 155 -9 19 -2 57 -3 83 -4 44 -1 49 -4 62
-33 7 -18 59 -127 114 -242 56 -115 101 -210 101 -211 0 -2 45 -97 100 -210
55 -114 100 -209 100 -210 0 -2 44 -95 98 -207 125 -259 141 -292 137 -296 -2
-2 -221 28 -315 43 -14 2 -52 7 -85 11 -33 3 -69 8 -79 10 -17 3 -117 17 -203
29 -86 11 -342 47 -363 50 -14 2 -45 7 -70 10 -25 3 -56 7 -69 10 -13 2 -49 7
-80 11 -31 3 -65 8 -75 10 -17 3 -118 17 -216 30 -19 2 -48 6 -65 9 -16 3 -50
7 -75 10 -25 3 -54 7 -65 9 -27 5 -91 14 -140 21 -38 5 -187 25 -470 65 -44 6
-96 13 -115 15 -19 3 -46 7 -60 10 -14 2 -47 7 -75 10 -45 5 -119 16 -215 29
-19 3 -136 19 -260 36 -124 17 -236 33 -250 35 -14 3 -45 7 -70 10 -25 3 -54
7 -65 9 -12 2 -48 7 -80 11 -33 4 -69 9 -79 11 -19 3 -145 21 -204 29 -16 1
-62 8 -103 14 -41 6 -94 13 -119 16 -25 3 -56 8 -70 10 -14 3 -41 7 -60 9 -70
9 -139 18 -340 46 -113 16 -227 32 -255 36 -27 3 -59 8 -70 10 -11 2 -40 6
-65 9 -25 3 -56 8 -70 10 -34 6 -132 18 -148 18 -28 1 11 16 178 70 96 32 258
84 360 118 102 33 439 144 750 245 311 102 669 219 795 261 127 41 253 83 280
94 44 17 67 19 205 13 85 -3 180 -7 210 -9z m1928 -109 c56 -3 146 -9 200 -12
139 -8 212 -12 248 -13 l30 -1 0 -667 0 -668 -60 126 c-34 69 -87 179 -118
245 -31 65 -111 234 -178 374 -172 359 -208 435 -247 520 -20 41 -39 82 -44
91 -7 14 -3 16 29 14 20 -2 83 -6 140 -9z m707 -41 c66 -3 154 -8 195 -10 41
-3 111 -7 155 -9 138 -8 290 -18 291 -20 2 -2 -810 -1223 -818 -1232 -4 -4 -7
281 -7 634 0 673 -1 653 44 646 11 -1 74 -5 140 -9z"/>
</g>
</svg>
